<?xml version="1.0" standalone="no"?>
<!DOCTYPE svg PUBLIC "-//W3C//DTD SVG 1.1//EN"
  "http://www.w3.org/Graphics/SVG/1.1/DTD/svg11.dtd">
<svg width="363.9336700439453mm" height="686.2620239257811mm" viewBox="-181.9586639404297 -343.13101196289057 363.9336700439453 686.2620239257811" xmlns="http://www.w3.org/2000/svg" version="1.1">
	<title>svgOutput</title>
	<desc>made with tinkercad</desc>
<path d="M 117.40599822998047 -326.6010131835937 L 142.72300720214844 -317.4140014648437 L 179.46278381347656 -306.6406860351562 L 180.96923828125 -306.1993103027343 L 180.96923828125 -306.1989440917968 L 180.96923828125 -282.0329284667968 L 180.9720001220703 1.1102230246251565e-16 L 180.97499084472656 305.7494812011718 L 180.97499084472656 305.90054321289057 L 180.97500610351562 307.4259948730468 L 162.04701232910156 312.19750976562494 L 161.9340057373047 312.2260131835937 L 160.7124786376953 312.64147949218744 L 152.96592712402344 315.2185974121093 L 148.28111267089844 316.7771606445312 L 133.7460174560547 321.61270141601557 L 109.66909790039062 331.3456726074218 L 108.83357238769531 331.6835632324218 L 108.6651611328125 331.7516479492187 L 107.7105712890625 332.10791015624994 L 81.18599700927734 342.13101196289057 L 75.33467102050781 341.0449829101562 L 2.9957573413848877 327.61889648437494 L 2.990999937057495 327.6180114746093 L 1.670150876045227 326.4951782226562 L 5.5277695398467386e-14 325.07937622070307 L -29.850013732910156 299.77551269531244 L -29.86692237854004 299.7611694335937 L -30.892284393310547 298.59387207031244 L -56.58399963378906 269.4670104980468 L -78.41694641113281 239.57235717773432 L -78.43399810791016 239.54899597167963 L -79.17498016357422 238.37272644042963 L -96.78223419189453 210.50840759277338 L -96.79943084716797 210.48120117187494 L -97.46436309814453 209.2709350585937 L -113.82752227783203 179.5859222412109 L -128.4730987548828 149.1228332519531 L -129.06100463867188 147.89999389648435 L -129.06106567382812 147.89984130859372 L -142.64556884765625 115.19927978515622 L -142.6490020751953 115.19100189208982 L -143.10812377929688 113.89354705810544 L -154.3108367919922 82.27001190185545 L -154.69766235351562 80.94506835937499 L -164.12899780273438 48.603000640869126 L -164.43850708007812 47.25233840942382 L -172.0667724609375 13.916989326477047 L -172.29058837890625 12.518478393554684 L -174.28790283203125 1.1102230246251565e-16 L -177.67100524902344 -21.204000473022457 L -180.7030029296875 -56.06600189208983 L -180.71371459960938 -57.48156356811522 L -180.9586639404297 -92.92642974853514 L -180.84230041503906 -94.35392761230467 L -177.41000366210938 -132.48756408691403 L -177.07296752929688 -134.08078002929685 L -169.29197692871094 -169.36810302734372 L -168.70419311523438 -170.9562072753906 L -154.44664001464844 -209.24496459960932 L -154.44573974609375 -209.2473754882812 L -153.5629425048828 -210.7424926757812 L -132.303466796875 -246.76921081542963 L -132.3015899658203 -246.77236938476557 L -131.14942932128906 -248.063247680664 L -102.86499786376953 -279.7789916992187 L -69.24400329589844 -305.57800292968744 L -37.24300003051758 -322.8829956054687 L -1.2130000591278076 -335.9469909667968 L 0 -336.15811157226557 L 34.32099914550781 -342.13101196289057 L 35.43706130981445 -342.1047058105468 L 62.077293395996094 -341.06201171874994 L 65.62542724609375 -340.92312622070307 L 66.6855239868164 -340.69494628906244 L 89.5780029296875 -335.6690063476562 L 117.40599822998047 -326.6010131835937 z" fill="none" stroke="rgb(255,0,0)" stroke-width="0.001mm" />
</svg>