<?xml version="1.0" standalone="no"?>
<!DOCTYPE svg PUBLIC "-//W3C//DTD SVG 1.1//EN"
  "http://www.w3.org/Graphics/SVG/1.1/DTD/svg11.dtd">
<svg width="141.7100067138672mm" height="215.1799926757812mm" viewBox="-70.8550033569336 -107.5899963378906 141.7100067138672 215.1799926757812" xmlns="http://www.w3.org/2000/svg" version="1.1">
	<title>svgOutput</title>
	<desc>made with tinkercad</desc>
<path d="M 60.409000396728516 -6.714000225067137 L 61.95621871948242 1.1102230246251565e-16 L 65.24099731445312 14.253999710083004 L 69.69599914550781 35.02199935913085 L 69.8550033569336 50.894001007080064 L 67.68900299072266 72.1689987182617 L 64.48799896240234 89.5970001220703 L 57.79499816894531 106.5899963378906 L 41.21900177001953 99.3440017700195 L 20.58099937438965 90.15200042724608 L -3.0920000076293945 72.33699798583983 L -14.930999755859375 61.131000518798814 L -29.263999938964844 44.59500122070312 L -45.4010009765625 20.938999176025387 L -54.35100173950195 1.7599999904632564 L -54.98255157470703 1.1102230246251565e-16 L -61.68199920654297 -18.67000007629394 L -67.93699645996094 -47.49700164794921 L -69.44000244140625 -64.42600250244139 L -69.8550033569336 -84.09300231933592 L -66.43599700927734 -106.5899963378906 L -42.922000885009766 -102.90399932861325 L -23.92300033569336 -94.66500091552733 L -8.404999732971191 -87.18000030517577 L 14.888999938964844 -70.27999877929686 L 30.358999252319336 -55.75299835205077 L 43.2760009765625 -41.24200057983398 L 53.74399948120117 -24.89800071716308 L 60.409000396728516 -6.714000225067137 z" fill="none" stroke="rgb(255,0,0)" stroke-width="0.001mm" />
</svg>